<?xml version="1.0" standalone="no"?><!DOCTYPE svg PUBLIC "-//W3C//DTD SVG 1.1//EN" "http://www.w3.org/Graphics/SVG/1.1/DTD/svg11.dtd"><svg xmlns:xlink="http://www.w3.org/1999/xlink" xmlns="http://www.w3.org/2000/svg" style="font-family:'lucida grande', 'lucida sans unicode', arial, helvetica, sans-serif;font-size:12px;" width="600" height="400" version="1.1"><desc>Created with Highcharts 4.2.7</desc><defs><clipPath id="highcharts-5"><rect x="1" y="1" width="546" height="313" /></clipPath></defs><rect fill="#ffffff" x="42" y="10" width="548" height="315" /><path fill="rgb(255, 255, 255)" fill-opacity=" 0.5" d="M 42 325.5 L 590 325.5 L 590 262.5 L 42 262.5" /><path fill="rgb(255, 255, 255)" fill-opacity=" 0.5" d="M 42 199.5 L 590 199.5 L 590 136.5 L 42 136.5" /><path fill="rgb(255, 255, 255)" fill-opacity=" 0.5" d="M 42 73.5 L 590 73.5 L 590 10.5 L 42 10.5" /><g class="highcharts-grid" /><g class="highcharts-grid"><path opacity="1" fill="none" stroke="#c0c0c0" stroke-width="1" d="M 42 325.5 L 590 325.5" /><path opacity="1" fill="none" stroke="#c0c0c0" stroke-width="1" d="M 42 262.5 L 590 262.5" /><path opacity="1" fill="none" stroke="#c0c0c0" stroke-width="1" d="M 42 199.5 L 590 199.5" /><path opacity="1" fill="none" stroke="#c0c0c0" stroke-width="1" d="M 42 136.5 L 590 136.5" /><path opacity="1" fill="none" stroke="#c0c0c0" stroke-width="1" d="M 42 73.5 L 590 73.5" /><path opacity="1" fill="none" stroke="#c0c0c0" stroke-width="1" d="M 42 9.5 L 590 9.5" /></g><rect fill="none" stroke="#026fc1" stroke-width="2" x="42" y="10" width="548" height="315" /><g class="highcharts-axis"><path opacity="1" fill="none" stroke="#c0d0e0" stroke-width="1" d="M 96.5 325 L 96.5 335" /><path opacity="1" fill="none" stroke="#c0d0e0" stroke-width="1" d="M 151.5 325 L 151.5 335" /><path opacity="1" fill="none" stroke="#c0d0e0" stroke-width="1" d="M 205.5 325 L 205.5 335" /><path opacity="1" fill="none" stroke="#c0d0e0" stroke-width="1" d="M 260.5 325 L 260.5 335" /><path opacity="1" fill="none" stroke="#c0d0e0" stroke-width="1" d="M 315.5 325 L 315.5 335" /><path opacity="1" fill="none" stroke="#c0d0e0" stroke-width="1" d="M 370.5 325 L 370.5 335" /><path opacity="1" fill="none" stroke="#c0d0e0" stroke-width="1" d="M 425.5 325 L 425.5 335" /><path opacity="1" fill="none" stroke="#c0d0e0" stroke-width="1" d="M 479.5 325 L 479.5 335" /><path opacity="1" fill="none" stroke="#c0d0e0" stroke-width="1" d="M 534.5 325 L 534.5 335" /><path opacity="1" fill="none" stroke="#c0d0e0" stroke-width="1" d="M 590.5 325 L 590.5 335" /><path opacity="1" fill="none" stroke="#c0d0e0" stroke-width="1" d="M 41.5 325 L 41.5 335" /><path fill="none" stroke="#c0d0e0" stroke-width="1" d="M 42 325.5 L 590 325.5" /></g><g class="highcharts-axis"><path opacity="1" fill="none" stroke="#c0d0e0" stroke-width="1" d="M 42 325.5 L 32 325.5" /><path opacity="1" fill="none" stroke="#c0d0e0" stroke-width="1" d="M 42 262.5 L 32 262.5" /><path opacity="1" fill="none" stroke="#c0d0e0" stroke-width="1" d="M 42 199.5 L 32 199.5" /><path opacity="1" fill="none" stroke="#c0d0e0" stroke-width="1" d="M 42 136.5 L 32 136.5" /><path opacity="1" fill="none" stroke="#c0d0e0" stroke-width="1" d="M 42 73.5 L 32 73.5" /><path opacity="1" fill="none" stroke="#c0d0e0" stroke-width="1" d="M 42 9.5 L 32 9.5" /></g><g class="highcharts-series-group"><g class="highcharts-series highcharts-series-0" clip-path="url(#highcharts-5)" transform="translate(42 10) scale(1)"><rect fill="#50b432" x="0" y="135" width="55" height="181" rx="0" ry="0" /><rect fill="#ed561b" x="55" y="316" width="55" height="0" rx="0" ry="0" /><rect fill="#dddf00" x="110" y="24" width="54" height="292" rx="0" ry="0" /><rect fill="#24cbe5" x="164" y="268" width="55" height="48" rx="0" ry="0" /><rect fill="#64e572" x="219" y="306" width="55" height="10" rx="0" ry="0" /><rect fill="#ff9655" x="274" y="185" width="55" height="131" rx="0" ry="0" /><rect fill="#fff263" x="329" y="316" width="55" height="0" rx="0" ry="0" /><rect fill="#6af9c4" x="384" y="316" width="54" height="0" rx="0" ry="0" /><rect fill="#2f7ed8" x="438" y="311" width="55" height="5" rx="0" ry="0" /><rect fill="#0d233a" x="493" y="316" width="55" height="0" rx="0" ry="0" /></g><g class="highcharts-markers highcharts-series-0" clip-path="none" transform="translate(42 10) scale(1)" /><g class="highcharts-series highcharts-series-1" clip-path="url(#highcharts-5)" transform="translate(42 10) scale(1)" /><g class="highcharts-markers highcharts-series-1" clip-path="none" transform="translate(42 10) scale(1)" /></g><g class="highcharts-data-labels highcharts-series-0" opacity="1" transform="translate(42 10) scale(1)"><g style="cursor:pointer;" transform="translate(17 114)"><text style="font-size:10px;font-weight:bold;font-family:'arial', sans-serif;color:#000000;text-shadow:none;fill:#000000;text-rendering:geometricprecision;" x="5" y="15"><tspan>72</tspan></text></g><g style="cursor:pointer;" transform="translate(75 295)"><text style="font-size:10px;font-weight:bold;font-family:'arial', sans-serif;color:#000000;text-shadow:none;fill:#000000;text-rendering:geometricprecision;" x="5" y="15"><tspan>0</tspan></text></g><g style="cursor:pointer;" transform="translate(124 3)"><text style="font-size:10px;font-weight:bold;font-family:'arial', sans-serif;color:#000000;text-shadow:none;fill:#000000;text-rendering:geometricprecision;" x="5" y="15"><tspan>116</tspan></text></g><g style="cursor:pointer;" transform="translate(181 247)"><text style="font-size:10px;font-weight:bold;font-family:'arial', sans-serif;color:#000000;text-shadow:none;fill:#000000;text-rendering:geometricprecision;" x="5" y="15"><tspan>19</tspan></text></g><g style="cursor:pointer;" transform="translate(239 285)"><text style="font-size:10px;font-weight:bold;font-family:'arial', sans-serif;color:#000000;text-shadow:none;fill:#000000;text-rendering:geometricprecision;" x="5" y="15"><tspan>4</tspan></text></g><g style="cursor:pointer;" transform="translate(291 164)"><text style="font-size:10px;font-weight:bold;font-family:'arial', sans-serif;color:#000000;text-shadow:none;fill:#000000;text-rendering:geometricprecision;" x="5" y="15"><tspan>52</tspan></text></g><g style="cursor:pointer;" transform="translate(349 295)"><text style="font-size:10px;font-weight:bold;font-family:'arial', sans-serif;color:#000000;text-shadow:none;fill:#000000;text-rendering:geometricprecision;" x="5" y="15"><tspan>0</tspan></text></g><g style="cursor:pointer;" transform="translate(403 295)"><text style="font-size:10px;font-weight:bold;font-family:'arial', sans-serif;color:#000000;text-shadow:none;fill:#000000;text-rendering:geometricprecision;" x="5" y="15"><tspan>0</tspan></text></g><g style="cursor:pointer;" transform="translate(458 290)"><text style="font-size:10px;font-weight:bold;font-family:'arial', sans-serif;color:#000000;text-shadow:none;fill:#000000;text-rendering:geometricprecision;" x="5" y="15"><tspan>2</tspan></text></g><g style="cursor:pointer;" transform="translate(513 295)"><text style="font-size:10px;font-weight:bold;font-family:'arial', sans-serif;color:#000000;text-shadow:none;fill:#000000;text-rendering:geometricprecision;" x="5" y="15"><tspan>0</tspan></text></g></g><g class="highcharts-data-labels highcharts-series-1" opacity="1" transform="translate(42 10) scale(1)" /><g class="highcharts-legend" transform="translate(259 356)"><g><g><g class="highcharts-legend-item" transform="translate(8 3)"><text style="color:#333;font-size:9pt;font-weight:normal;cursor:pointer;font-family:'lucida grande','lucida sans unicode',arial,helvetica,sans-serif;text-transform:none;fill:#333;" text-anchor="start" x="21" y="15"><tspan>Series 1</tspan></text><rect fill="#ccc" x="0" y="4" width="16" height="12" /></g></g></g></g><g class="highcharts-axis-labels highcharts-xaxis-labels"><text style="color:#000000;cursor:default;font-size:10px;font-family:'arial', sans-serif;text-transform:none;font-weight:normal;fill:#000000;" opacity="1" text-anchor="middle" transform="translate(0)" x="69.4" y="343">0</text><text style="color:#000000;cursor:default;font-size:10px;font-family:'arial', sans-serif;text-transform:none;font-weight:normal;fill:#000000;" opacity="1" text-anchor="middle" transform="translate(0)" x="124.2" y="343">1</text><text style="color:#000000;cursor:default;font-size:10px;font-family:'arial', sans-serif;text-transform:none;font-weight:normal;fill:#000000;" opacity="1" text-anchor="middle" transform="translate(0)" x="179" y="343">2</text><text style="color:#000000;cursor:default;font-size:10px;font-family:'arial', sans-serif;text-transform:none;font-weight:normal;fill:#000000;" opacity="1" text-anchor="middle" transform="translate(0)" x="233.8" y="343">3</text><text style="color:#000000;cursor:default;font-size:10px;font-family:'arial', sans-serif;text-transform:none;font-weight:normal;fill:#000000;" opacity="1" text-anchor="middle" transform="translate(0)" x="288.6" y="343">4</text><text style="color:#000000;cursor:default;font-size:10px;font-family:'arial', sans-serif;text-transform:none;font-weight:normal;fill:#000000;" opacity="1" text-anchor="middle" transform="translate(0)" x="343.4" y="343">5</text><text style="color:#000000;cursor:default;font-size:10px;font-family:'arial', sans-serif;text-transform:none;font-weight:normal;fill:#000000;" opacity="1" text-anchor="middle" transform="translate(0)" x="398.2" y="343">6</text><text style="color:#000000;cursor:default;font-size:10px;font-family:'arial', sans-serif;text-transform:none;font-weight:normal;fill:#000000;" opacity="1" text-anchor="middle" transform="translate(0)" x="453" y="343">7</text><text style="color:#000000;cursor:default;font-size:10px;font-family:'arial', sans-serif;text-transform:none;font-weight:normal;fill:#000000;" opacity="1" text-anchor="middle" transform="translate(0)" x="507.8" y="343">8</text><text style="color:#000000;cursor:default;font-size:10px;font-family:'arial', sans-serif;text-transform:none;font-weight:normal;fill:#000000;" opacity="1" text-anchor="middle" transform="translate(0)" x="562.6" y="343">9</text></g><g class="highcharts-axis-labels highcharts-yaxis-labels"><text style="color:#000000;cursor:default;font-size:10px;font-family:'arial', sans-serif;text-transform:none;font-weight:normal;fill:#000000;width:188px;text-overflow:clip;" opacity="1" text-anchor="end" transform="translate(0)" x="27" y="329"><tspan>0</tspan></text><text style="color:#000000;cursor:default;font-size:10px;font-family:'arial', sans-serif;text-transform:none;font-weight:normal;fill:#000000;width:188px;text-overflow:clip;" opacity="1" text-anchor="end" transform="translate(0)" x="27" y="266"><tspan>25</tspan></text><text style="color:#000000;cursor:default;font-size:10px;font-family:'arial', sans-serif;text-transform:none;font-weight:normal;fill:#000000;width:188px;text-overflow:clip;" opacity="1" text-anchor="end" transform="translate(0)" x="27" y="203"><tspan>50</tspan></text><text style="color:#000000;cursor:default;font-size:10px;font-family:'arial', sans-serif;text-transform:none;font-weight:normal;fill:#000000;width:188px;text-overflow:clip;" opacity="1" text-anchor="end" transform="translate(0)" x="27" y="140"><tspan>75</tspan></text><text style="color:#000000;cursor:default;font-size:10px;font-family:'arial', sans-serif;text-transform:none;font-weight:normal;fill:#000000;width:188px;text-overflow:clip;" opacity="1" text-anchor="end" transform="translate(0)" x="27" y="77"><tspan>100</tspan></text><text style="color:#000000;cursor:default;font-size:10px;font-family:'arial', sans-serif;text-transform:none;font-weight:normal;fill:#000000;width:188px;text-overflow:clip;" opacity="1" text-anchor="end" transform="translate(0)" x="27" y="14"><tspan>125</tspan></text></g><g class="highcharts-tooltip" display="none" style="cursor:default;padding:0;pointer-events:none;white-space:nowrap;" transform="translate(0)"><path fill="none" stroke="black" stroke-opacity="0.05" stroke-width="5" transform="translate(1 1)" d="M 3.5 0.5 L 13.5 0.5 C 16.5 0.5 16.5 0.5 16.5 3.5 L 16.5 13.5 C 16.5 16.5 16.5 16.5 13.5 16.5 L 3.5 16.5 C 0.5 16.5 0.5 16.5 0.5 13.5 L 0.5 3.5 C 0.5 0.5 0.5 0.5 3.5 0.5"  /><path fill="none" stroke="black" stroke-opacity="0.1" stroke-width="3" transform="translate(1 1)" d="M 3.5 0.5 L 13.5 0.5 C 16.5 0.5 16.5 0.5 16.5 3.5 L 16.5 13.5 C 16.5 16.5 16.5 16.5 13.5 16.5 L 3.5 16.5 C 0.5 16.5 0.5 16.5 0.5 13.5 L 0.5 3.5 C 0.5 0.5 0.5 0.5 3.5 0.5"  /><path fill="none" stroke="black" stroke-opacity="0.15" stroke-width="1" transform="translate(1 1)" d="M 3.5 0.5 L 13.5 0.5 C 16.5 0.5 16.5 0.5 16.5 3.5 L 16.5 13.5 C 16.5 16.5 16.5 16.5 13.5 16.5 L 3.5 16.5 C 0.5 16.5 0.5 16.5 0.5 13.5 L 0.5 3.5 C 0.5 0.5 0.5 0.5 3.5 0.5"  /><path fill="rgb(255, 255, 255)" fill-opacity=" 0.85" d="M 3.5 0.5 L 13.5 0.5 C 16.5 0.5 16.5 0.5 16.5 3.5 L 16.5 13.5 C 16.5 16.5 16.5 16.5 13.5 16.5 L 3.5 16.5 C 0.5 16.5 0.5 16.5 0.5 13.5 L 0.5 3.5 C 0.5 0.5 0.5 0.5 3.5 0.5" /><text style="font-size:12px;color:#000000;fill:#000000;" x="8" y="20"></text></g><text style="cursor:pointer;color:#909090;font-size:9px;fill:#909090;" text-anchor="end" x="590" y="395">Highcharts.com</text></svg>